<svg id="Layer_1" data-name="Layer 1" xmlns="http://www.w3.org/2000/svg" viewBox="0 0 297.72 90.26"><defs><style>.cls-1{fill:#066b3c;}.cls-2{fill:#f69523;}.cls-3{fill:#0505fe;}.cls-4{fill:#0303fe;}.cls-5{fill:#f69421;}.cls-6{fill:#036939;}.cls-7{fill:#046a3a;}.cls-8{fill:#0707fe;}.cls-9{fill:#0404fe;}.cls-10{fill:#f69422;}.cls-11{fill:#0606fe;}.cls-12{fill:#f6931f;}.cls-13{fill:#0202fe;}.cls-14{fill:#056b3b;}.cls-15{fill:#f7f7fe;}</style></defs><path class="cls-1" d="M299,44.67a3.09,3.09,0,0,1-4.14.88,16.46,16.46,0,0,1-2.42-1.36c-2.57-1.72-5.14-1.53-7.82,0-.35-.58-.69-1.14-1.07-1.75A4.13,4.13,0,0,0,286.16,38c-.13-2.86,0-5.72,0-8.72-2.91,0-5.76-.08-8.61,0-1.13,0-.94,1-.82,1.87a4.93,4.93,0,0,1-.09,1.08c-.34-.22-.83-.36-1-.67-.87-1.49-1.71-3-2.45-4.55-.19-.38,0-1,0-1.44l1.08.56a6.32,6.32,0,0,0,2.19,1c3.16.11,6.32,0,9.57,0V17.9a5.62,5.62,0,0,1-1.42,0c-.31-.09-.53-.48-.8-.73.27-.25.53-.72.8-.72,3.17-.06,6.33-.06,9.5,0,.27,0,.53.47.79.72-.26.26-.49.64-.81.73a5,5,0,0,1-1.45,0c0,.34-.08.61-.08.89V39.62a4.4,4.4,0,0,0,2.29,4.25,2,2,0,0,1,1.37-2.43c1.24-.38,2.06.33,2.78,1.21Z" transform="translate(-1.28 -3.19)"/><path class="cls-2" d="M27.9,44.17l-1-1.7c2.51-1,2.72-3.06,2.6-5.33-.09-1.89,0-3.78,0-5.85H21a1.65,1.65,0,0,0-1.86,1.35c-.06.25-.47.43-.71.65-.14-.27-.39-.52-.41-.79V30.05l-4.84.84c.5,1.82.93,3.8,1.61,5.68a10.46,10.46,0,0,0,1.92,3.33c1.3,1.49,2.87,1.23,3.76-.52.37-.73.38-1.63.69-2.39.16-.37.63-.61,1-.9.23.32.64.64.65,1,.07,1.72,0,3.43,0,5.19-3.06,0-6.09.36-9-.1-3.52-.55-5.28-3.26-6.18-6.59a16.9,16.9,0,0,0-1.6-4C5.29,30.35,4.24,30.3,3.1,31a.22.22,0,0,0,.12.16c1.12.17,1.82.75,1.71,1.93-.09.93-.78,1.22-1.65,1.19a2,2,0,0,1-2-1.85,3.54,3.54,0,0,1,3.37-3.68h.27a32.89,32.89,0,0,1,4.65.38c4.28.56,8-3.21,7-7.16a5.26,5.26,0,0,0-3.88-3.79,7.77,7.77,0,0,0-6.11.71c-.63.35-1,1.14-1.53,1.69A7.71,7.71,0,0,1,4,21.39c-.2-.36-.56-.71-.58-1.08-.08-1.25,0-2.52,0-3.85a8.62,8.62,0,0,1,.87-.11H15.91c4.25,0,7.7,3.33,7.48,7.08-.14,2.56-1.67,4.23-3.89,5.69h10V17.9a5.86,5.86,0,0,1-1.45,0c-.31-.09-.54-.48-.8-.73.27-.25.53-.72.81-.72,3.12-.05,6.24-.06,9.36,0,.3,0,.6.5.89.76-.28.24-.53.6-.86.69a5.55,5.55,0,0,1-1.41,0c0,.41-.07.69-.07,1V39.47c0,1.74.37,3.33,2.21,4.36,0-1.42.53-2.28,1.89-2.41a2.1,2.1,0,0,1,2.35,1.81,1.23,1.23,0,0,1,0,.19,2,2,0,0,1-1.5,2.4,2,2,0,0,1-.43,0,9.94,9.94,0,0,1-2.79-.6,8.88,8.88,0,0,1-1.53-.87C32.77,42.52,31.46,42.47,27.9,44.17Z" transform="translate(-1.28 -3.19)"/><path class="cls-2" d="M120,31c.16.12.21.19.28.2a1.66,1.66,0,0,1,1.64,2c-.1.86-.75,1.14-1.56,1.13a2,2,0,0,1-2.1-1.78,3.55,3.55,0,0,1,3.33-3.76H122a38,38,0,0,1,4.65.4c4.28.54,8-3.28,6.88-7.22a5.22,5.22,0,0,0-3.91-3.75,7.7,7.7,0,0,0-5.89.63c-.7.37-1.13,1.23-1.71,1.83a8.23,8.23,0,0,1-1,.76c-.23-.33-.63-.66-.65-1-.08-1.29,0-2.59,0-4h12.31a8.23,8.23,0,0,1,5.15,1.79,6.14,6.14,0,0,1,1.4,8.57,5.81,5.81,0,0,1-1.1,1.17c-.46.41-1,.77-1.61,1.27h9.92V17.9a5.17,5.17,0,0,1-1.47,0,1.2,1.2,0,0,1-.7-.79c0-.17.43-.65.68-.65,3.21-.05,6.41-.05,9.62,0,.24,0,.71.52.66.68a1.34,1.34,0,0,1-.74.77,5,5,0,0,1-1.45,0c0,.39-.1.71-.1,1V39.35a4.71,4.71,0,0,0,1.61,4.06,2.89,2.89,0,0,0,.56.27c.22-1.72,1-2.43,2.37-2.32a2.22,2.22,0,0,1,2,2.41s0,0,0,.08a2.11,2.11,0,0,1-2.2,2,1.55,1.55,0,0,1-.31,0,9.55,9.55,0,0,1-2.28-.64,4.59,4.59,0,0,1-1.09-.64c-2.72-1.94-5.54-2.28-8.53-.41L144,42.38c2.37-.92,2.72-2.8,2.61-5-.1-2,0-4,0-6.14-3.05,0-6-.06-8.92.06-.49,0-.94.86-1.42,1.32l-.65.59c-.17-.24-.46-.47-.48-.72-.06-.83,0-1.67,0-2.51l-4.86.82c.44,1.56.8,3.27,1.41,4.89a15.12,15.12,0,0,0,2.1,4.07c1.32,1.63,3,1.29,3.88-.62.31-.67.31-1.48.6-2.16.15-.39.59-.66.9-1,.25.35.7.69.71,1,.08,1.72,0,3.43,0,5.22-3,0-5.86.21-8.69-.06-3.15-.31-5.63-3.21-6.5-6.76a14.57,14.57,0,0,0-1.64-3.8C122.3,30.38,121.35,30.32,120,31Z" transform="translate(-1.28 -3.19)"/><path class="cls-3" d="M228.87,91.69l-1-1.37c3-1.28,2.42-3.84,2.44-6.11a29.38,29.38,0,0,1-4.62,1.69,11.87,11.87,0,0,1-8.86-1.64,8.6,8.6,0,0,1-4.15-9.16,9.93,9.93,0,0,1,7.45-7.43c2-.42,4-.66,5.77.48a4,4,0,0,1,1.46,1.77,1.69,1.69,0,0,1-1,2.18l-.24.07c-.83.12-1.81,0-2-.89-.11-.65.41-1.4.65-2.13a3.22,3.22,0,0,0-3.71.95c-2.82,2.87-3.07,9.09-.49,12.16,1.85,2.19,5.73,2.36,8.52.4a2.48,2.48,0,0,0,1.2-2.29c-.07-4.2,0-8.4,0-12.48-.71-.64-2.24.44-2.16-1s1.54-.36,2.23-.82l-2.83-1.59a22.33,22.33,0,0,1-3.31,1.93,4.56,4.56,0,0,1-4.85-.93c-1.6-1.47-3-3.16-4.47-4.77a21.83,21.83,0,0,0-1.49-1.7c-.86-.76-1.61-.48-2.06.74a1.5,1.5,0,0,1,.47.08c.45.2,1.06.31,1.27.66a1.32,1.32,0,0,1-.55,1.16,2.05,2.05,0,0,1-1.69-.23,3.34,3.34,0,0,1-.63-3.54,2.75,2.75,0,0,1,2.62-2,5.11,5.11,0,0,1,2.85.73,52.4,52.4,0,0,1,4,3.6,46.56,46.56,0,0,0,3.73,3.14,3.68,3.68,0,0,0,2,.48c.68,0,1.32-.47.87-1.25a58.9,58.9,0,0,0-3.68-5.83c-.89-1.19-1.72-1.12-2.62-.3,1.41.27,2,1,1.32,1.85a1.69,1.69,0,0,1-1.51.47,2.68,2.68,0,0,1-1.37-1.42A2,2,0,0,1,219.73,55a6.13,6.13,0,0,1,5.93-.09A11.3,11.3,0,0,1,231,60.56a12.87,12.87,0,0,0,1.83,2.84c1.65,1.84,2.76,1.55,3.51-.82l2.46.9c-.63,1.27-1.45,1.82-3.71,2.65a12.74,12.74,0,0,1,2.14,0c.37.06.68.48,1,.74a5.82,5.82,0,0,1-1.06.72,2.42,2.42,0,0,1-.93,0c-.09.16-.16.22-.16.29,0,6.69,0,13.38,0,20.07A3.4,3.4,0,0,0,238,91.14c.42-1.47,1.28-2.08,2.52-1.82A2.08,2.08,0,0,1,242,91.76a1.71,1.71,0,0,1-1.84,1.55,8.86,8.86,0,0,1-2.54-.59,6.08,6.08,0,0,1-1.41-.83C233.92,90.31,231.49,90.35,228.87,91.69Z" transform="translate(-1.28 -3.19)"/><path class="cls-4" d="M29.49,66.13H40.55a4.77,4.77,0,0,1,3.78,2.24C47,72,45.44,77.06,40.93,79a23,23,0,0,1-3.17.9,28.71,28.71,0,0,1,1.42,3.33,4.57,4.57,0,0,0,3.66,3.56c2,.25,3.14-.91,4-2.44,1.73-2.9,2-6.91.74-11,1.69-.36,3.36-.76,5-1a1.22,1.22,0,0,1,1,.6c.41,1.21.69,2.47,1,3.8H58.4v-9a4.11,4.11,0,0,1-1.31,0,1.28,1.28,0,0,1-.7-.79c0-.18.42-.66.67-.67h9c.23,0,.66.5.62.69a1.14,1.14,0,0,1-.69.76,5.9,5.9,0,0,1-1.57,0,6.17,6.17,0,0,0-.09.62V87.43a4.15,4.15,0,0,0,2,3.92c.22-1.23.8-1.92,2-1.9a2,2,0,1,1,.11,4,8.29,8.29,0,0,1-3.29-1c-3.42-2-4.63-2.12-8.06-.65l-1-1.33c2-.86,2.5-2.38,2.42-4.33-.11-2.52,0-5,0-7.65h-4a10.59,10.59,0,0,1-5.44,8.16,12.84,12.84,0,0,1-9.73,1.58C36,87.46,33.48,85.6,32.69,82a3.93,3.93,0,0,0-1.31-2c-.45-.37-1.28-.27-1.93-.38v.35c.34.41.85.78,1,1.25a1.17,1.17,0,0,1-.72,1.49,1.91,1.91,0,0,1-.33.06,1.6,1.6,0,0,1-2-1.13.85.85,0,0,1,0-.17A2.88,2.88,0,0,1,29.66,78a2.14,2.14,0,0,1,.5-.06c1.35,0,2.69.13,4,.18a4.48,4.48,0,0,0,4.51-2.84,5,5,0,0,0-.41-5.59A4.65,4.65,0,0,0,33,68.1a8.68,8.68,0,0,0-2.23,1.67c-.27.21-.56.39-.85.59-.16-.3-.44-.59-.46-.89C29.45,68.28,29.49,67.27,29.49,66.13Z" transform="translate(-1.28 -3.19)"/><path class="cls-5" d="M87,17.9c0,.47-.07.84-.07,1.21V39.56A4.49,4.49,0,0,0,89,43.75c.44-1.82,1-2.35,2.23-2.37A2.07,2.07,0,0,1,93.31,43,2.14,2.14,0,0,1,92,45.73a2,2,0,0,1-.69.12,8.71,8.71,0,0,1-2.67-.6,8.88,8.88,0,0,1-1.53-.87c-3.35-1.92-4.62-2-8.18-.26l-1.08-1.7c3.51-1.32,2.48-4.3,2.64-7.06-5.41,5-11.11,5-16.79,1-4.11-2.9-4.9-7.09-3.64-11.59a49.15,49.15,0,0,0,5,.64,4.35,4.35,0,0,0,4.27-3c.73-2.65-1.8-5-4.93-4.46a2.81,2.81,0,0,0-2.49,1.67,1.17,1.17,0,0,1-.88.46c-.13,0-.41-.48-.43-.75-.05-.95,0-1.91,0-2.73,3.59,0,7-.23,10.46.07a5.12,5.12,0,0,1,4.82,4,5.51,5.51,0,0,1-3.59,5.44,18,18,0,0,1-4.86,1.07c-1.23.14-1.64.37-1.71,1.69-.3,5.94,4.9,9.67,10.42,7.48a6.69,6.69,0,0,0,3.71-2.94,24.25,24.25,0,0,1-2.51-1.35c-.21-.15-.2-.81-.11-1.19.24-1.09,1.46-1.38,3.24-.83V17.9a4.37,4.37,0,0,1-1.35,0c-.35-.11-.62-.47-.93-.72.31-.26.6-.72.91-.73,2.15-.07,4.3,0,6.45,0a21.49,21.49,0,0,1,2.78,0c.33,0,.6.5.9.77-.29.24-.54.59-.86.68A5.24,5.24,0,0,1,87,17.9Z" transform="translate(-1.28 -3.19)"/><path class="cls-6" d="M196.42,16.38V29.13c0,2.84,1.23,4.59,3.54,5.07a6.44,6.44,0,0,0,6.23-3.2,1.12,1.12,0,0,0,.1-.48V17.9a5.1,5.1,0,0,1-1.46,0c-.34-.11-.59-.5-.89-.76.28-.24.55-.69.83-.69,3.12-.05,6.24-.06,9.36,0,.29,0,.57.5.85.77-.27.24-.52.59-.83.68a5.7,5.7,0,0,1-1.43,0c0,.32-.05.56-.05.8V39.78a4.18,4.18,0,0,0,2.16,4c.27-1.83,1.09-2.57,2.53-2.38a2.38,2.38,0,0,1,1.85,2.5,2.31,2.31,0,0,1-2.57,2l-.12,0a5.1,5.1,0,0,1-1.58-.4,7.4,7.4,0,0,1-1.66-.9c-2.73-2-5.54-2.27-8.53-.41l-1.08-1.75c2.34-.87,2.82-2.68,2.64-4.89-.1-1.25,0-2.52,0-3.9-.18.09-.34.11-.42.21-3,3.64-10.83,3.25-14.16-.8a6.57,6.57,0,0,1-1.62-4.39V20.59c0-2.32-1.37-3.21-3.74-2.36.94.35,2,.6,1.65,1.9a1.58,1.58,0,0,1-1.82,1.3h0a2.08,2.08,0,0,1-2.07-1.82,3,3,0,0,1,2.77-3.22h.07C190,16.35,193.13,16.38,196.42,16.38Z" transform="translate(-1.28 -3.19)"/><path class="cls-7" d="M256.92,34.12,261,37.69A12.44,12.44,0,0,1,253.49,42c-4.46.84-8.82.75-12.79-1.83-2.68-1.75-4.51-4.07-4.36-7.46.17-3.74,3.81-6.83,8.14-7a6.89,6.89,0,0,0,4.29-1.19,3.73,3.73,0,0,0,1.6-3.86,3.14,3.14,0,0,0-2.87-2.49,17.25,17.25,0,0,0-4.7.34c-.53.1-.92.94-1.4,1.43-.25.26-.55.48-.82.71-.19-.31-.51-.61-.55-.93-.07-.84,0-1.68,0-2.81l7-.71A9.12,9.12,0,0,1,245.38,15a14.83,14.83,0,0,1-2.56-3.34,4.84,4.84,0,0,1,1.94-6.55l.06,0a11.55,11.55,0,0,1,4.77-1.77c3-.28,6-.08,9.08-.08V7.19c0,.2-.25.55-.35.54a1,1,0,0,1-.7-.37c-1.35-2.16-3-3-5.07-2.46A5,5,0,0,0,249,9.73a6.54,6.54,0,0,0,2.61,5.85,5.74,5.74,0,0,1,.89,1.24A30.2,30.2,0,0,1,256,18.61c2.5,1.66,2.61,4.51.35,6.49A6.38,6.38,0,0,1,252,26.74a10,10,0,0,0-6.59,2.12,6,6,0,0,0-1.93,6.6c.66,2.5,2,4.46,4.74,5,2.49.51,4.32-.83,5.87-2.51A40.67,40.67,0,0,0,256.92,34.12Z" transform="translate(-1.28 -3.19)"/><path class="cls-8" d="M261.07,67.65a4.3,4.3,0,0,1-1.34,0,1.25,1.25,0,0,1-.68-.79c0-.18.41-.66.65-.67q4.37-.06,8.73,0c.23,0,.68.49.65.67a1.29,1.29,0,0,1-.7.78,4.24,4.24,0,0,1-1.33,0c0,.35-.06.63-.06.91v18.8a4,4,0,0,0,1.91,3.85c.42-1.49,1.28-2.08,2.53-1.83A2.09,2.09,0,0,1,273,91.68a1.92,1.92,0,0,1-2.1,1.73l-.27,0a7.56,7.56,0,0,1-2.68-1c-3.69-2.12-4.24-2.21-8.22-.79l-.86-1.19c2.41-1.76,2.6-2.32,2.25-6.67-5,4.57-10.23,4.49-15.43.69-3.72-2.73-4.27-6.61-3.24-10.72l4.33.7a2.41,2.41,0,0,0,.38,0,4.17,4.17,0,0,0,3.79-2.66,2.68,2.68,0,0,0-1.06-3.21,5,5,0,0,0-5-.33c-.14.09-.25.23-.39.33l-1.2.84A11.22,11.22,0,0,1,243,68V66.33c3.3,0,6.5-.2,9.66.06,2.41.2,4.18,1.91,4.31,3.64a4.71,4.71,0,0,1-3.06,4.78,15.14,15.14,0,0,1-4.34,1.1c-1.5.18-1.94.42-1.9,2,.06,3,1.26,5.4,4,6.61s5.43.3,7.79-1.46c.47-.35,1-.65,1.55-1a22.27,22.27,0,0,1-2.67-1.35c-.21-.14-.26-.71-.19-1,.19-1,1.27-1.38,3-.91Z" transform="translate(-1.28 -3.19)"/><path class="cls-9" d="M137.75,80.05c.62,1.2,1.24,2.36,1.85,3.53a41.18,41.18,0,0,0,2.18,4.1c1.05,1.57,2.28,1.51,3.44,0,.33-.43.51-1,.82-1.41a8.68,8.68,0,0,1,1.05-1v4.93c-3.66-.3-7.66,1.09-10.74-2a26.92,26.92,0,0,1-3.18-4.6,38.48,38.48,0,0,0-2.33-3.84c-.9-1.1-1.94-.84-2.56.45.27.09.62.09.77.26.33.37.84.9.75,1.24a1.81,1.81,0,0,1-1.12,1.11,1.86,1.86,0,0,1-2.2-1.42,2,2,0,0,1,0-.64A3.41,3.41,0,0,1,130,77.45a3.11,3.11,0,0,1,.8.13c1,.2,2,.49,2.94.72a7.76,7.76,0,0,0,8.48-4.23,4.22,4.22,0,0,0,.31-1.49c-3.18,3.07-6.91,3.16-10.8,2.11a8.78,8.78,0,0,1-2.88-1.49,3.24,3.24,0,0,1-.28-5.2,10.43,10.43,0,0,1,6.26-2.68,17.4,17.4,0,0,1,10.23,1.42c5,2.54,5.42,7.31.89,10.67A14.2,14.2,0,0,1,137.75,80.05ZM141,71.84l-1.51-1.72,2.24-1.31c-.85-1.43-4.33-1.45-6.19-.54-.82.4-1.61.9-1.54,1.94a2.55,2.55,0,0,0,1.79,2.51A6.18,6.18,0,0,0,141,71.84Z" transform="translate(-1.28 -3.19)"/><path class="cls-10" d="M117.88,26.65A15.21,15.21,0,0,0,110,22.41c-3.55-.6-6.56.33-8.74,3.23s-1.89,6-.67,9.12c.68,1.72,1.72,3.35,3.88,3.27s3.26-1.75,3.73-3.59a13.44,13.44,0,0,0,.35-4.81,2.41,2.41,0,0,0-2.47-2.35,2.23,2.23,0,0,0-.91.2,4.8,4.8,0,0,0-.74.61c.93.4,1.64.83,1.23,1.91a1.55,1.55,0,0,1-1.8,1,1.88,1.88,0,0,1-1.79-1.67c-.33-1.65,1-3.29,3.13-3.57a8.88,8.88,0,0,1,6,1.15c4,2.4,4.36,7.11.91,10.2-4,3.59-11,3.67-15.6.33-4.83-3.48-5.53-10.19,0-14,5.06-3.53,10.58-4.71,16.49-2.46a23.29,23.29,0,0,1,3.93,2.49A2.54,2.54,0,0,1,117.88,26.65Z" transform="translate(-1.28 -3.19)"/><path class="cls-11" d="M87,81.54l-.74-2.45L95.7,76.5c-1.92-.5-4-.92-5.91-1.55a7.44,7.44,0,0,1-2.47-1.46,3.17,3.17,0,0,1-.75-4.43,3.22,3.22,0,0,1,.59-.63,9.62,9.62,0,0,1,3.18-2,14.29,14.29,0,0,1,9.78-.12,6.36,6.36,0,0,1,2,1.19,3.17,3.17,0,0,1,.9,1.59,2,2,0,0,1-1.37,2.47h0a2,2,0,0,1-2.42-.86c-.67-1.19,0-2,1.27-2.77-2.31-.3-4.32-.66-6.28.16a3.11,3.11,0,0,0-2,3.93,3,3,0,0,0,1.15,1.56,6.09,6.09,0,0,0,5.37,1.2c2.75-.51,5.46-1.24,8.33-1.9L108,75l-8.6,2.28a27.75,27.75,0,0,1,4.54,1.59c3.43,1.84,3.8,5.46,1,8.13a11.57,11.57,0,0,1-6.81,3c-3.23.37-6.41.23-9.24-1.67a3.88,3.88,0,0,1-2-3.67,1.65,1.65,0,0,1,1.52-1.59,1.86,1.86,0,0,1,2.21,1.05c.39.86.07,1.44-1.2,2.14a7.86,7.86,0,0,0,7.38,1.49,5.41,5.41,0,0,0,4.11-4.63,3.8,3.8,0,0,0-5-4.2Z" transform="translate(-1.28 -3.19)"/><path class="cls-11" d="M202.28,67.9a48.58,48.58,0,0,0-5.66,0A3,3,0,0,0,194,70.47a3.37,3.37,0,0,0,1.6,3.46,6.23,6.23,0,0,0,5,.91c2.75-.52,5.46-1.24,8.36-1.91l.86,2-8.5,2.27a29.82,29.82,0,0,1,4.74,1.8c3.05,1.73,3.41,5.12,1,7.65A11.34,11.34,0,0,1,200,89.94c-3.24.39-6.42.25-9.25-1.65a3.92,3.92,0,0,1-2.05-3.65,1.66,1.66,0,0,1,1.5-1.62,1.88,1.88,0,0,1,2.22,1c.41.87.12,1.43-1.17,2.15a7.81,7.81,0,0,0,7.22,1.54,5.43,5.43,0,0,0,4.25-4.65,3.79,3.79,0,0,0-4.93-4.23l-8.89,2.63L188,79.1l9.46-2.61c-1.92-.48-3.94-.89-5.88-1.53a7.93,7.93,0,0,1-2.66-1.63,3.19,3.19,0,0,1-.44-4.49,3,3,0,0,1,.3-.32,9.88,9.88,0,0,1,6.34-2.78,12.87,12.87,0,0,1,7,.68,5.31,5.31,0,0,1,2.29,1.68,3.1,3.1,0,0,1,.2,2.44c-.19.52-1.1.94-1.76,1.11a1.64,1.64,0,0,1-2-1.18v0a1.58,1.58,0,0,1,.69-2Z" transform="translate(-1.28 -3.19)"/><path class="cls-6" d="M224.1,17.9a4.63,4.63,0,0,1-1.39,0c-.35-.11-.62-.47-.93-.72.3-.25.59-.72.9-.73,1.81-.07,3.62,0,5.43,0,1.22,0,2.45-.05,3.67,0,.35,0,.67.48,1,.74a4.57,4.57,0,0,1-1.07.72,4.09,4.09,0,0,1-1.21,0c0,.37-.07.69-.07,1V39.34c0,1.78.41,3.39,2.15,4.42.32-1.83,1.12-2.54,2.54-2.37A2.29,2.29,0,0,1,237,44a2.08,2.08,0,0,1-2,1.9,8.39,8.39,0,0,1-2.43-.48,9.52,9.52,0,0,1-1.65-.92c-3.36-2-4.82-2-8.36-.35l-1-1.69c2.43-.92,2.68-2.88,2.65-5.13C224.05,30.91,224.1,24.48,224.1,17.9Z" transform="translate(-1.28 -3.19)"/><path class="cls-12" d="M46.46,17.9a4.9,4.9,0,0,1-1.43,0,1.21,1.21,0,0,1-.7-.78c0-.17.43-.66.67-.66,3.2-.05,6.41-.05,9.61,0,.24,0,.7.51.65.68a1.29,1.29,0,0,1-.73.77,5,5,0,0,1-1.45,0,6.5,6.5,0,0,0-.12.87v21a4.37,4.37,0,0,0,1.95,4c.4-.69.61-1.58,1.14-1.85a3.1,3.1,0,0,1,2.32-.1A2.23,2.23,0,0,1,57.51,46a6.55,6.55,0,0,1-2.32-.4,10.91,10.91,0,0,1-1.88-1c-3.41-2-4.61-2-8.28-.31l-1-1.56a8.61,8.61,0,0,0,1.66-1.35,3.9,3.9,0,0,0,.85-2c.06-6.9,0-13.79,0-20.69A4.15,4.15,0,0,0,46.46,17.9Z" transform="translate(-1.28 -3.19)"/><path class="cls-7" d="M279,39.18a1.65,1.65,0,0,1-1.68-1.62,1.62,1.62,0,0,1,0-.22,1.58,1.58,0,0,1,1.58-1.51c1.15-.13,1.71.52,2,1.51a3.05,3.05,0,0,1-.84,3.24c-1.67,1.66-3.76,1.87-6,1.83-8.33-.16-14.72-8.6-12.23-16.42,1.59-5,5.47-7.81,10.38-9,2.62-.63,5.4-.56,8.27-.83v3.32c0,.23-.25.64-.39.65a1.12,1.12,0,0,1-.82-.37c-1.32-1.9-3.07-2.5-5.18-1.3a9.69,9.69,0,0,0-3.46,3.18A14.52,14.52,0,0,0,270.45,37c1.24,2.24,3.13,3.82,5.91,3.59a11.31,11.31,0,0,0,2.72-.91Z" transform="translate(-1.28 -3.19)"/><path class="cls-13" d="M81.68,91.26c.42-1.53,1.27-2.12,2.51-1.88a2.18,2.18,0,0,1,1.59,2.16,1.94,1.94,0,0,1-2,1.85l-.25,0a8.15,8.15,0,0,1-3.12-1.17c-2.54-1.66-5.09-2.06-7.86-.5l-1-1.37C73.73,89.4,74,87.64,74,85.56c-.09-5.92,0-11.84,0-17.91a4.63,4.63,0,0,1-1.39,0,1.23,1.23,0,0,1-.71-.77c0-.18.41-.68.64-.68h8.72c.24,0,.69.49.66.67a1.28,1.28,0,0,1-.7.79,4.11,4.11,0,0,1-1.31,0c0,.3-.09.58-.09.87v18.9A4.16,4.16,0,0,0,81.68,91.26Z" transform="translate(-1.28 -3.19)"/><path class="cls-13" d="M113.52,91.69l-1-1.38c2.45-.93,2.47-3,2.44-5.09-.06-5.42,0-10.85,0-16.27v-1.3a6,6,0,0,1-1.47,0,1,1,0,0,1-.63-.72c0-.25.38-.73.6-.73q4.42-.08,8.85,0c.21,0,.58.5.57.75a1,1,0,0,1-.65.7,5.78,5.78,0,0,1-1.44,0V87.52a4.2,4.2,0,0,0,1.92,3.75c.22-1.18.76-1.91,2-1.91a2.06,2.06,0,0,1,2.13,2v0a2,2,0,0,1-1.86,2A6.38,6.38,0,0,1,121,92,6.65,6.65,0,0,0,113.52,91.69Z" transform="translate(-1.28 -3.19)"/><path class="cls-13" d="M282.54,67.65V87.37a4.37,4.37,0,0,0,1.91,3.9c.25-1.14.76-1.91,2-1.91a2.06,2.06,0,0,1,2.16,1.94v.06a1.94,1.94,0,0,1-1.84,2,6.34,6.34,0,0,1-2.2-.39,8.35,8.35,0,0,1-1.86-1,6.62,6.62,0,0,0-7.36-.26l-1-1.35c2-.91,2.48-2.47,2.44-4.46-.09-5.63,0-11.26,0-16.9V67.65a4.94,4.94,0,0,1-1.33,0c-.31-.11-.55-.46-.82-.7.25-.26.5-.75.76-.75,2.86-.06,5.73-.06,8.59,0,.26,0,.52.48.77.74-.27.24-.49.6-.81.71A4.76,4.76,0,0,1,282.54,67.65Z" transform="translate(-1.28 -3.19)"/><path class="cls-13" d="M152.16,67.65a4.63,4.63,0,0,1-1.39,0,1.23,1.23,0,0,1-.71-.77c0-.18.4-.68.62-.68q4.37-.08,8.73,0c.25,0,.7.49.67.66a1.25,1.25,0,0,1-.69.8,4.24,4.24,0,0,1-1.33,0c0,.34-.07.67-.07,1V87.59a4.27,4.27,0,0,0,2,4c.18-1.24.62-2.1,1.93-2.16a1.86,1.86,0,0,1,2,1.27,1.92,1.92,0,0,1-.94,2.56,1.87,1.87,0,0,1-.73.18A6.43,6.43,0,0,1,160,93a5.72,5.72,0,0,1-1.43-.79c-2.51-1.74-5.09-2.06-7.8-.31l-1-1.37a4.08,4.08,0,0,0,1-.72c.51-.78,1.31-1.62,1.33-2.44C152.2,80.83,152.16,74.31,152.16,67.65Z" transform="translate(-1.28 -3.19)"/><path class="cls-14" d="M232.22,12.1c-1.32,2.91-3.64,4-7,3.44A14.25,14.25,0,0,1,217,11c-1.12-1.19-2.25-2.38-3.46-3.49a6.67,6.67,0,0,0-1.92-1.18c-1.59-.66-2.54-.26-3.47,1.46a10.52,10.52,0,0,1,1.08-.25c.94-.12,1.71.1,1.89,1.17a1.7,1.7,0,0,1-1.53,1.84,2.66,2.66,0,0,1-3-2.26,2.56,2.56,0,0,1,.2-1.47c.73-2.15,3.27-3.32,6-2.73A19.41,19.41,0,0,1,220.1,7.9,47,47,0,0,0,224.52,11,9,9,0,0,0,232.22,12.1Z" transform="translate(-1.28 -3.19)"/><path class="cls-15" d="M141,71.84a6.18,6.18,0,0,1-5.21.88A2.55,2.55,0,0,1,134,70.21c-.07-1,.72-1.54,1.54-1.94,1.86-.91,5.34-.89,6.19.54l-2.24,1.31Z" transform="translate(-1.28 -3.19)"/></svg>